<?xml version="1.0" encoding="utf-8"?>
<!-- Generator: Adobe Illustrator 21.0.0, SVG Export Plug-In . SVG Version: 6.00 Build 0)  -->
<svg version="1.0" id="图层_1" xmlns="http://www.w3.org/2000/svg" xmlns:xlink="http://www.w3.org/1999/xlink" x="0px" y="0px"
	 viewBox="0 0 52 28" style="enable-background:new 0 0 52 28;" xml:space="preserve">
<style type="text/css">
	.st0{fill:#FF2727;}
</style>
<g>
	<g>
		<path class="st0" d="M0,14.5c0-0.4,0-0.9,0-1.3c0,0,0-0.1,0-0.1c0-0.2,0-0.4,0.1-0.6c0.1-0.7,0.2-1.4,0.5-2.1
			C0.8,9.5,1.1,8.7,1.6,8c0.3-0.5,0.6-1,1-1.4c0.3-0.4,0.7-0.8,1-1.1c0.3-0.3,0.7-0.6,1-0.9c0.3-0.3,0.7-0.5,1-0.7
			c0.6-0.4,1.3-0.7,2-1c1-0.4,2-0.6,3-0.7C11.8,2,12.8,2,13.9,2.2c1.4,0.2,2.7,0.6,4,1.3c0.7,0.4,1.3,0.8,1.9,1.3
			c0.4,0.3,0.7,0.6,1,0.9c0.3,0.3,0.7,0.7,1,1.1c0.4,0.4,0.7,0.9,1.1,1.3c0.4,0.6,0.8,1.2,1.2,1.9c0,0,0,0,0.1,0.1
			c0,0,0-0.1,0.1-0.1c0.2-0.3,0.4-0.6,0.6-0.9c0.3-0.5,0.7-0.9,1-1.4c0.3-0.4,0.7-0.8,1-1.2c0.3-0.4,0.7-0.8,1-1.1
			c0.3-0.4,0.7-0.7,1-1c0.3-0.3,0.7-0.6,1-0.9c0.6-0.5,1.3-0.9,2-1.3c0.7-0.3,1.3-0.6,2-0.8c1.2-0.4,2.5-0.6,3.7-0.7
			c1.1,0,2.2,0,3.3,0.2c1.1,0.2,2.1,0.5,3.1,1c0.7,0.3,1.4,0.7,2,1.1c0.3,0.2,0.7,0.5,1,0.7c0.4,0.3,0.7,0.6,1,0.9
			c0.4,0.4,0.7,0.7,1,1.1c0.4,0.5,0.7,1,1,1.5c0.4,0.7,0.7,1.4,1,2.1c0.5,1.3,0.7,2.6,0.8,3.9c0,0.8,0,1.7-0.1,2.5
			c-0.1,1-0.4,2-0.8,2.9c-0.3,0.7-0.6,1.5-1.1,2.1c-0.3,0.5-0.6,1-1,1.4c-0.3,0.4-0.7,0.8-1,1.1c-0.3,0.3-0.7,0.6-1,0.9
			c-0.4,0.3-0.7,0.6-1.1,0.8c-0.6,0.4-1.2,0.7-1.9,1c-1,0.4-2,0.7-3.1,0.9c-0.6,0.1-1.3,0.2-2,0.2c-0.9,0-1.9,0-2.8-0.2
			c-1.2-0.2-2.3-0.5-3.4-1c-0.7-0.3-1.3-0.6-2-1c-0.7-0.5-1.4-1-2-1.6c-0.4-0.3-0.7-0.7-1-1c-0.4-0.4-0.7-0.8-1.1-1.2
			c-0.3-0.4-0.6-0.8-1-1.2c-0.4-0.5-0.7-1-1.1-1.5c-0.1-0.2-0.3-0.4-0.4-0.6c0,0,0-0.1-0.1-0.1c-0.2,0.2-0.3,0.5-0.5,0.7
			c-0.3,0.5-0.7,1-1,1.4c-0.3,0.4-0.7,0.9-1,1.3c-0.3,0.4-0.6,0.7-1,1.1c-0.3,0.3-0.7,0.6-1,0.9c-0.4,0.3-0.7,0.5-1.1,0.8
			c-0.6,0.4-1.3,0.7-1.9,1c-1.2,0.5-2.4,0.7-3.6,0.8c-0.9,0.1-1.8,0-2.6-0.1c-1-0.1-1.9-0.4-2.8-0.7c-0.8-0.3-1.5-0.7-2.2-1.1
			c-0.3-0.2-0.6-0.4-0.8-0.6c-0.4-0.3-0.7-0.6-1-0.9c-0.3-0.3-0.7-0.7-1-1.1c-0.4-0.5-0.7-1-1-1.5c-0.4-0.7-0.7-1.5-1-2.3
			c-0.2-0.7-0.4-1.5-0.4-2.2C0,14.8,0,14.7,0,14.5z M38.6,23.4c0.3,0,0.9-0.1,1.5-0.2c1.1-0.2,2.1-0.5,3-1c0.7-0.4,1.4-0.9,2-1.5
			c0.4-0.3,0.7-0.7,1-1.1c0.4-0.5,0.7-1,1-1.6c0.5-1,0.8-2.1,1-3.2c0.1-0.8,0.1-1.6,0-2.4c-0.2-1.1-0.5-2.2-1.1-3.2
			c-0.3-0.5-0.6-1-1-1.5c-0.3-0.4-0.6-0.8-1-1.1c-0.3-0.3-0.7-0.5-1-0.8c-0.7-0.5-1.5-0.9-2.3-1.2c-1.4-0.5-2.9-0.6-4.3-0.5
			c-0.9,0.1-1.7,0.3-2.5,0.6c-0.7,0.3-1.3,0.6-1.9,1c-0.4,0.3-0.8,0.6-1.2,1c-0.3,0.2-0.5,0.5-0.8,0.8c-0.4,0.4-0.7,0.7-1,1.1
			c-0.3,0.4-0.7,0.8-1,1.2c-0.4,0.5-0.7,0.9-1,1.4c-0.3,0.5-0.7,1.1-1,1.6c-0.1,0.2-0.3,0.5-0.4,0.7c0,0.1,0,0.1,0,0.2
			c0.2,0.3,0.4,0.6,0.5,0.9c0.3,0.5,0.7,1.1,1,1.6c0.3,0.5,0.7,1,1,1.4c0.3,0.4,0.7,0.8,1,1.2c0.4,0.5,0.9,0.9,1.3,1.4
			c0.2,0.2,0.5,0.5,0.8,0.7c0.3,0.3,0.7,0.5,1,0.7c0.6,0.4,1.3,0.7,2,1C36.1,23.2,37.2,23.4,38.6,23.4z M12.1,22c0.3,0,0.7,0,1-0.1
			c0.9-0.1,1.8-0.3,2.7-0.8c0.8-0.4,1.4-0.9,2.1-1.4c0.3-0.3,0.7-0.7,1-1c0.4-0.4,0.7-0.8,1-1.3c0.4-0.5,0.7-1,1-1.5
			c0.4-0.6,0.7-1.3,1.1-2c0-0.1,0-0.1,0-0.2c-0.1-0.1-0.1-0.2-0.2-0.4c-0.3-0.6-0.7-1.2-1-1.8c-0.3-0.5-0.6-1-1-1.5
			c-0.3-0.4-0.7-0.8-1-1.2c-0.3-0.4-0.6-0.7-1-1c-0.3-0.3-0.7-0.5-1-0.8c-0.9-0.6-1.9-1-3-1.2c-0.8-0.1-1.6-0.2-2.4-0.1
			c-0.9,0.1-1.8,0.4-2.7,0.8C7.8,6.9,7.1,7.4,6.5,8c-0.3,0.3-0.7,0.7-1,1c-0.4,0.5-0.8,1.1-1,1.7c-0.6,1.3-0.8,2.7-0.6,4.1
			c0.1,0.9,0.3,1.7,0.7,2.5c0.3,0.6,0.6,1.1,1.1,1.6c0.3,0.4,0.6,0.7,1,1c0.6,0.5,1.3,1,2.1,1.3C9.8,21.7,10.9,22,12.1,22z"/>
		<path class="st0" d="M35.2,9.9c-0.2-0.3-0.4-0.5-0.6-0.7c-0.1-0.1-0.3,0-0.3,0.1c0,0.2-0.2,0.3-0.3,0.2c-0.2,0-0.2-0.1-0.2-0.3
			c0-0.4,0.5-0.7,0.9-0.6C34.8,8.8,35,8.9,35.1,9c0.2,0.3,0.4,0.5,0.6,0.8C35.8,9.9,35.9,10,36,10c2.5,0,5,0,7.5,0
			c0.1,0,0.1,0,0.2,0c0.1,0,0.2,0.1,0.3,0.2c0,0.2,0.1,0.4,0.1,0.7c0.1,0.6,0.2,1.3,0.3,1.9c0,0.2-0.1,0.4-0.3,0.4
			c-0.2,0-0.4,0-0.6,0c-0.2,0-0.2,0-0.2,0.2c0,1.8,0,3.6,0,5.3c0,0.1,0,0.1,0,0.2c0,0.1-0.1,0.2-0.2,0.2c-0.1,0-0.1,0-0.2,0
			c-3.1,0-6.1,0-9.2,0c0,0-0.1,0-0.1,0c-0.2,0-0.3-0.1-0.3-0.3c0,0,0-0.1,0-0.1c0-1.8,0-3.5,0-5.3c0-0.2,0-0.2-0.2-0.2
			c-0.2,0-0.4,0-0.6,0c-0.2,0-0.3-0.1-0.3-0.4c0.1-0.7,0.2-1.3,0.3-2c0-0.2,0-0.4,0.1-0.5c0-0.1,0.1-0.2,0.3-0.2c0.1,0,0.2,0,0.3,0
			c0.6,0,1.2,0,1.9,0C35,10,35.1,10,35.2,9.9C35.1,10,35.2,10,35.2,9.9z M38.2,13.2c0.1,0.1,0.1,0.1,0.1,0.1
			c0.3,0.2,0.5,0.5,0.8,0.7c0.2,0.2,0.2,0.3,0,0.5c-0.1,0.1-0.2,0.1-0.2,0.2c-0.6,0.5-1.1,1.1-1.7,1.6c0,0,0,0,0,0
			c-0.1,0.1-0.3,0.1-0.4,0c-0.3-0.3-0.6-0.6-0.9-0.9c-0.3-0.3-0.6-0.6-0.9-0.9c-0.1-0.1-0.2-0.2-0.4-0.4c0-0.1-0.1-0.1-0.1-0.2
			c0-0.2,0-0.4-0.1-0.5c-0.1-0.4,0-0.4-0.4-0.4c-0.2,0-0.2,0-0.2,0.2c0,1.7,0,3.3,0,5c0,0.2,0,0.2,0.2,0.2c2.8,0,5.7,0,8.5,0
			c0.2,0,0.2,0,0.2-0.2c0-1.7,0-3.4,0-5c0-0.2,0-0.2-0.2-0.2c-1.4,0-2.8,0-4.2,0C38.3,13.2,38.2,13.2,38.2,13.2z M36.1,10.5
			c0,0.1,0,0.1,0.1,0.1c0.2,0.5,0.4,1,0.3,1.6c0,0.4-0.2,0.7-0.5,1c-0.1,0.1-0.3,0.1-0.4,0c-0.1-0.1-0.1-0.3,0-0.4
			c0.2-0.2,0.3-0.5,0.3-0.8c0-0.5-0.2-1-0.4-1.5c0,0-0.1-0.1-0.1-0.1c-0.8,0-1.5,0-2.3,0c-0.1,0-0.1,0-0.1,0.1
			c0,0.2-0.1,0.4-0.1,0.6c-0.1,0.4-0.1,0.8-0.2,1.2c0,0.1,0,0.1,0.1,0.1c0.4,0,0.9,0,1.3,0c0,0,0.1,0,0.1,0c0.2-0.2,0.4-0.5,0.6-0.7
			c0.1-0.1,0.3-0.1,0.4,0c0.1,0.1,0.1,0.3,0,0.4c-0.1,0.1-0.2,0.2-0.3,0.3c-0.1,0.1-0.1,0.2-0.1,0.3c0,0.3,0.1,0.5,0.1,0.8
			c0,0.1,0.1,0.2,0.1,0.3c0.5,0.5,1,1,1.5,1.5c0.1,0.1,0.1,0.1,0.2,0.2c0.1,0.1,0.1,0.1,0.3,0c0.3-0.3,0.5-0.6,0.8-0.8
			c0.2-0.2,0.4-0.4,0.6-0.5c0,0,0.1-0.1,0-0.1c-0.1-0.1-0.3-0.3-0.4-0.4c-0.3-0.3-0.6-0.6-0.9-0.9c-0.1-0.1-0.1-0.3,0-0.4
			c0.1-0.1,0.3-0.1,0.4,0c0.1,0.1,0.1,0.1,0.2,0.1c1.9,0,3.9,0,5.8,0c0,0,0.1,0,0.1,0c0.1,0,0.1,0,0.1-0.1c-0.1-0.6-0.2-1.2-0.3-1.9
			c0-0.1-0.1-0.1-0.2-0.1c-2.3,0-4.7,0-7,0C36.2,10.5,36.2,10.5,36.1,10.5z"/>
		<path class="st0" d="M15.5,14.4c0-0.3,0-0.5,0-0.8c0,0,0.1,0,0.1,0c0.8,0,1.6,0,2.4,0c0.1,0,0.2,0,0.2,0.2c0,0.2,0,0.4,0,0.6
			c0,0.1,0,0.1-0.1,0.1C17.2,14.4,16.4,14.4,15.5,14.4C15.5,14.4,15.5,14.4,15.5,14.4z"/>
		<path class="st0" d="M7.6,17.8c0.6-0.6,1.2-1.2,1.9-1.8c0.2,0.2,0.4,0.4,0.5,0.7c-0.1,0.1-0.3,0.3-0.4,0.4
			c-0.2,0.2-0.3,0.3-0.5,0.5c-0.3,0.3-0.5,0.5-0.8,0.8c0,0-0.1,0.1-0.1,0C8,18.2,7.8,18,7.6,17.8z"/>
		<path class="st0" d="M8.8,13.6c0,0.3,0,0.6,0,0.8c0,0-0.1,0-0.1,0c-0.8,0-1.6,0-2.4,0c-0.1,0-0.2,0-0.2-0.2c0-0.2,0-0.4,0-0.6
			c0-0.1,0-0.1,0.1-0.1C7.1,13.6,7.9,13.6,8.8,13.6C8.8,13.6,8.8,13.6,8.8,13.6z"/>
		<path class="st0" d="M14.2,16.6c0.2-0.2,0.4-0.4,0.6-0.6c0.6,0.6,1.2,1.2,1.8,1.8c-0.2,0.2-0.4,0.4-0.6,0.6
			C15.4,17.8,14.8,17.2,14.2,16.6z"/>
		<path class="st0" d="M10.1,11.4c-0.2,0.2-0.4,0.4-0.6,0.6c-0.6-0.6-1.2-1.2-1.8-1.8C7.9,10,8.1,9.8,8.3,9.6
			C8.9,10.2,9.5,10.8,10.1,11.4z"/>
		<path class="st0" d="M14.8,12c-0.2-0.2-0.4-0.4-0.6-0.7c0.6-0.6,1.2-1.2,1.8-1.8c0.2,0.2,0.4,0.4,0.6,0.6
			C16.1,10.8,15.4,11.4,14.8,12z"/>
		<path class="st0" d="M12.6,10.7c-0.3,0-0.6,0-0.8,0c0,0,0-0.1,0-0.1c0-0.8,0-1.5,0-2.3c0-0.1,0-0.1,0.1-0.1c0.2,0,0.4,0,0.6,0
			c0.1,0,0.1,0,0.1,0.1C12.6,9.1,12.6,9.9,12.6,10.7C12.6,10.7,12.6,10.7,12.6,10.7z"/>
		<path class="st0" d="M11.7,17.3c0.3,0,0.6,0,0.8,0c0,0,0,0.1,0,0.1c0,0.8,0,1.5,0,2.3c0,0.1,0,0.2-0.1,0.1c-0.2,0-0.4,0-0.6,0
			c-0.1,0-0.1,0-0.1-0.1C11.7,18.9,11.7,18.1,11.7,17.3C11.7,17.3,11.7,17.3,11.7,17.3z"/>
	</g>
</g>
</svg>
